<svg id="Logo" xmlns="http://www.w3.org/2000/svg" xmlns:xlink="http://www.w3.org/1999/xlink" width="601.071"
  height="184.806" viewBox="0 0 601.071 184.806">
  <defs>
    <clipPath id="clip-path">
      <rect id="Rectangle_4590" data-name="Rectangle 4590" width="601.071" height="184.805" fill="none" />
    </clipPath>
  </defs>
  <rect id="Rectangle_4588" data-name="Rectangle 4588" width="601.071" height="184.806" fill="none" opacity="0" />
  <path id="Path_8654" data-name="Path 8654" d="M260.755,90.437h6.016v7.384h-6.016Zm0,12.547h6.016v30.978h-6.016Z"
    transform="translate(-76.449 -26.514)" fill="#231f20" />
  <path id="Path_8655" data-name="Path 8655"
    d="M307.84,102.983,296,118.41l12.035,15.551h-7.06l-11.37-14.836v14.836H283.6V90.437h6.01v27.187l11.3-14.64Z"
    transform="translate(-83.146 -26.514)" fill="#231f20" />
  <path id="Path_8656" data-name="Path 8656" d="M327.875,90.437h6.016v7.384h-6.016Zm0,12.547h6.016v30.978h-6.016Z"
    transform="translate(-96.128 -26.514)" fill="#231f20" />
  <g id="Group_9442" data-name="Group 9442" transform="translate(0 0.001)">
    <g id="Group_9441" data-name="Group 9441" clip-path="url(#clip-path)">
      <path id="Path_8657" data-name="Path 8657"
        d="M356.728,138.894h-6.013V107.917H356.6v2.223a30.538,30.538,0,0,1,11.63-2.877,6.572,6.572,0,0,1,7,6.925v24.706h-6.016v-23q0-2.745-2.812-2.745a20.054,20.054,0,0,0-6.922,1.763q-2.75,1.046-2.75,2.812Z"
        transform="translate(-102.824 -31.448)" fill="#231f20" />
      <path id="Path_8658" data-name="Path 8658"
        d="M415.908,130.932v-2.678h6.015v3.983a6.723,6.723,0,0,1-2,4.9,6.624,6.624,0,0,1-4.937,2.026H404.736a6.548,6.548,0,0,1-4.866-2.026,6.7,6.7,0,0,1-2-4.9V115.117a6.7,6.7,0,0,1,2-4.9,6.554,6.554,0,0,1,4.866-2.028h10.252a6.631,6.631,0,0,1,4.937,2.028,6.726,6.726,0,0,1,2,4.9v3.661h-6.015v-2.355a2.63,2.63,0,0,0-.815-1.964,2.78,2.78,0,0,0-1.989-.785h-6.477a2.686,2.686,0,0,0-2.745,2.75v14.508a2.676,2.676,0,0,0,2.745,2.742H413.1a2.774,2.774,0,0,0,1.989-.779,2.632,2.632,0,0,0,.815-1.963"
        transform="translate(-116.65 -31.719)" fill="#231f20" />
      <path id="Path_8659" data-name="Path 8659" d="M444.373,90.437h6.016v7.384h-6.016Zm0,12.547h6.016v30.978h-6.016Z"
        transform="translate(-130.283 -26.515)" fill="#231f20" />
      <path id="Path_8660" data-name="Path 8660"
        d="M490.283,108.188l-9.677,30.978-3.854,12.417h-9.076l3.067-11.174-9.994-32.22h9.015l5.751,20.914,5.751-20.914Z"
        transform="translate(-135.084 -31.719)" fill="#00bc70" />
      <path id="Path_8661" data-name="Path 8661"
        d="M524.825,129.359h8.686v3a6.8,6.8,0,0,1-6.79,6.8H514.693a6.8,6.8,0,0,1-6.8-6.8V114.986a6.8,6.8,0,0,1,6.8-6.8h11.965a6.8,6.8,0,0,1,6.785,6.8v11.367H516.911v4.383a.583.583,0,0,0,.657.653h6.595a.584.584,0,0,0,.662-.653Zm-7.914-12.673v3.2h8.044v-3.2a.584.584,0,0,0-.657-.658h-6.73a.587.587,0,0,0-.657.658"
        transform="translate(-148.907 -31.719)" fill="#00bc70" />
      <path id="Path_8662" data-name="Path 8662"
        d="M564.075,138.894h-9.018V107.917h8.686v2.289q2.483-.985,5.888-1.964a20.237,20.237,0,0,1,5.093-.979,6.648,6.648,0,0,1,5,1.858,6.877,6.877,0,0,1,1.8,4.941v24.833H572.5V117.067a.575.575,0,0,0-.649-.652q-1.116,0-7.123,2.158a.806.806,0,0,0-.655.846Z"
        transform="translate(-162.734 -31.448)" fill="#00bc70" />
      <path id="Path_8663" data-name="Path 8663" d="M604.053,90.437h9.022v7.384h-9.022Zm0,12.547h9.022v30.978h-9.022Z"
        transform="translate(-177.099 -26.515)" fill="#00bc70" />
      <rect id="Rectangle_4589" data-name="Rectangle 4589" width="6.729" height="8.037"
        transform="translate(445.128 99.409)" fill="#231f20" />
      <path id="Path_8664" data-name="Path 8664"
        d="M670.269,130.932v-2.678h6.008v3.983a6.744,6.744,0,0,1-1.99,4.9,6.667,6.667,0,0,1-4.941,2.026H659.082a6.585,6.585,0,0,1-4.868-2.026,6.744,6.744,0,0,1-1.989-4.9V115.117a6.746,6.746,0,0,1,1.989-4.9,6.592,6.592,0,0,1,4.868-2.028h10.265a6.673,6.673,0,0,1,4.941,2.028,6.747,6.747,0,0,1,1.99,4.9v3.661h-6.008v-2.355a2.622,2.622,0,0,0-.82-1.964,2.8,2.8,0,0,0-2-.785h-6.475a2.678,2.678,0,0,0-2.739,2.75v14.508a2.668,2.668,0,0,0,2.739,2.742h6.475a2.8,2.8,0,0,0,2-.779,2.623,2.623,0,0,0,.82-1.963"
        transform="translate(-191.222 -31.719)" fill="#231f20" />
      <path id="Path_8665" data-name="Path 8665"
        d="M704.206,139.165a6.594,6.594,0,0,1-4.875-2.026,6.736,6.736,0,0,1-1.993-4.9V115.117a6.739,6.739,0,0,1,1.993-4.9,6.6,6.6,0,0,1,4.875-2.028h11.37a6.777,6.777,0,0,1,4.932,2.028,6.614,6.614,0,0,1,2.06,4.9v17.119a6.611,6.611,0,0,1-2.06,4.9,6.77,6.77,0,0,1-4.932,2.026Zm12.358-8.233V116.424a2.625,2.625,0,0,0-.824-1.964,2.8,2.8,0,0,0-1.99-.785H706.1a2.689,2.689,0,0,0-2.742,2.75v14.508a2.679,2.679,0,0,0,2.742,2.742h7.651a2.789,2.789,0,0,0,1.99-.779,2.626,2.626,0,0,0,.824-1.963"
        transform="translate(-204.449 -31.719)" fill="#231f20" />
      <path id="Path_8666" data-name="Path 8666"
        d="M773.229,114.909c-1.832.7-2.739,1.615-2.739,2.75v21.236h-6.016v-23c0-1.83-.944-2.745-2.815-2.745a20.037,20.037,0,0,0-6.925,1.763c-1.822.7-2.745,1.636-2.745,2.812v21.174h-6.014V107.917h5.877v2.223a30.589,30.589,0,0,1,11.639-2.877,6.553,6.553,0,0,1,6.013,3.073,33.9,33.9,0,0,1,6.537-2.188,27.221,27.221,0,0,1,5.945-.885,6.566,6.566,0,0,1,6.992,6.925v24.706h-6.011v-23c0-1.83-.939-2.745-2.806-2.745a20.55,20.55,0,0,0-6.933,1.763"
        transform="translate(-218.708 -31.448)" fill="#231f20" />
      <path id="Path_8667" data-name="Path 8667"
        d="M140.7,122.7a19.328,19.328,0,1,1-19.33-19.332A19.327,19.327,0,0,1,140.7,122.7"
        transform="translate(-29.918 -30.306)" fill="#00bc70" />
      <path id="Path_8668" data-name="Path 8668"
        d="M145.873,56.011a2.071,2.071,0,0,0-1.582.208,2.094,2.094,0,0,0-.766,2.848l5,8.657-2.142,1.239-8.019-13.889a2.085,2.085,0,0,0-3.611,2.084l8.022,13.887-2.142,1.24L131.4,56.3a2.086,2.086,0,0,0-3.613,2.086l9.227,15.983L134.872,75.6l-8.016-13.886a2.084,2.084,0,1,0-3.608,2.085L134,82.438a11.379,11.379,0,0,1,1.237-.837,10.591,10.591,0,0,1,13.417,2.374l.213.257-1.9,1.587-.216-.253a8.107,8.107,0,0,0-10.28-1.818,8.272,8.272,0,0,0-1.166.815,8.138,8.138,0,0,0-2.072,2.656l-5.5-6.555a2.408,2.408,0,0,0-3.051-.541,2.448,2.448,0,0,0-.3.2l-.254.213-1.647,1.383,11.819,14.09a8.1,8.1,0,0,0,6.219,2.9h.28l.045.282a37.479,37.479,0,1,1-37.34-31.507V43.577A61.589,61.589,0,1,0,134.64,158.505l.006,0a61.59,61.59,0,0,0,22.538-84.122l-10.048-17.4a2.065,2.065,0,0,0-1.262-.972"
        transform="translate(-12.395 -12.776)" fill="#231f20" />
    </g>
  </g>
</svg>